<svg width="99" height="195" viewBox="0 0 99 195" fill="none" xmlns="http://www.w3.org/2000/svg">
<g filter="url(#filter0_d_2_127)">
<mask id="path-1-outside-1_2_127" maskUnits="userSpaceOnUse" x="1" y="-3" width="97" height="193" fill="black">
<rect fill="white" x="1" y="-3" width="97" height="193"/>
<path d="M94.681 187H49.45V65.4238H4.79524V35.1738C18.4317 34.9817 29.8595 31.5246 39.0786 24.8024C48.4897 18.0801 54.0595 9.82141 55.7881 0.0261717H94.681V187Z"/>
</mask>
<path d="M94.681 187V190H97.681V187H94.681ZM49.45 187H46.45V190H49.45V187ZM49.45 65.4238H52.45V62.4238H49.45V65.4238ZM4.79524 65.4238H1.79524V68.4238H4.79524V65.4238ZM4.79524 35.1738L4.75299 32.1741L1.79524 32.2158V35.1738H4.79524ZM39.0786 24.8024L37.3349 22.3612L37.3229 22.3697L37.3111 22.3783L39.0786 24.8024ZM55.7881 0.0261717V-2.97383H53.2712L52.8337 -0.495184L55.7881 0.0261717ZM94.681 0.0261717H97.681V-2.97383H94.681V0.0261717ZM94.681 184H49.45V190H94.681V184ZM52.45 187V65.4238H46.45V187H52.45ZM49.45 62.4238H4.79524V68.4238H49.45V62.4238ZM7.79524 65.4238V35.1738H1.79524V65.4238H7.79524ZM4.83749 38.1735C18.9708 37.9744 31.0337 34.3813 40.8461 27.2264L37.3111 22.3783C28.6853 28.6679 17.8927 31.989 4.75299 32.1741L4.83749 38.1735ZM40.8223 27.2436C50.7607 20.1447 56.8551 11.2424 58.7425 0.547528L52.8337 -0.495184C51.2639 8.40039 46.2187 16.0156 37.3349 22.3612L40.8223 27.2436ZM55.7881 3.02617H94.681V-2.97383H55.7881V3.02617ZM91.681 0.0261717V187H97.681V0.0261717H91.681Z" fill="url(#paint0_linear_2_127)" mask="url(#path-1-outside-1_2_127)"/>
</g>
<defs>
<filter id="filter0_d_2_127" x="0.795242" y="0.026123" width="97.8857" height="194.974" filterUnits="userSpaceOnUse" color-interpolation-filters="sRGB">
<feFlood flood-opacity="0" result="BackgroundImageFix"/>
<feColorMatrix in="SourceAlpha" type="matrix" values="0 0 0 0 0 0 0 0 0 0 0 0 0 0 0 0 0 0 127 0" result="hardAlpha"/>
<feOffset dy="4"/>
<feGaussianBlur stdDeviation="2"/>
<feComposite in2="hardAlpha" operator="out"/>
<feColorMatrix type="matrix" values="0 0 0 0 0 0 0 0 0 0 0 0 0 0 0 0 0 0 0.25 0"/>
<feBlend mode="normal" in2="BackgroundImageFix" result="effect1_dropShadow_2_127"/>
<feBlend mode="normal" in="SourceGraphic" in2="effect1_dropShadow_2_127" result="shape"/>
</filter>
<linearGradient id="paint0_linear_2_127" x1="55.5" y1="-100" x2="55.5" y2="210.5" gradientUnits="userSpaceOnUse">
<stop stop-color="white"/>
<stop offset="1" stop-color="white" stop-opacity="0"/>
</linearGradient>
</defs>
</svg>
