<svg width="361" height="682" viewBox="0 0 361 682" fill="none" xmlns="http://www.w3.org/2000/svg">
<g opacity="0.1">
<path d="M-289.333 352.221L-205.461 312.943L-191.141 280.945L-225.193 208.897L-180.147 177.847L-168.81 106.109L-75.9678 155.658L-56.8751 112.994L10.6804 128.024L66.096 188.029L117.934 140.016L303.39 195.006L247.007 320.998L282.138 356.723L240.969 448.717L191.931 477.98L192.662 595.926L146.401 613.63L63.2192 576.405L4.31414 588.45L-53.9009 523.992L-126.435 491.531L-171.596 535.331L-282.727 485.599L-289.333 352.221Z" stroke="url(#paint0_linear_2_32)" stroke-width="1.37062"/>
<path d="M-19.8825 355.68L-20.6138 341.461L-13.7824 326.196L2.1639 320.549L17.3605 324.026L22.8944 318.918L42.735 324.814L36.7297 338.234L30.8699 354.956L30.9702 367.529L26.027 369.407L17.1256 365.424L-3.16958 356.341L-7.99027 361.002L-19.8825 355.68Z" stroke="url(#paint1_linear_2_32)" stroke-width="1.37062"/>
<path d="M-268.862 351.839L-191.47 315.035L-177.726 284.324L-208.545 217.601L-166.351 188.723L-155.301 122.636L-69.0164 168.508L-50.9666 128.733L12.1554 142.833L64.0713 198.449L111.691 154.646L282.65 205.922L230.379 322.865L262.582 356.485L224.588 442.37L179.131 469.454L179.617 578.4L136.572 594.589L59.4459 560.074L3.51079 570.494L-50.4115 511.173L-117.552 481.389L-159.696 521.615L-262.736 475.503L-268.862 351.839Z" stroke="url(#paint2_linear_2_32)" stroke-width="1.37062"/>
<path d="M-248.39 351.456L-177.477 317.127L-164.31 287.703L-191.896 226.305L-152.554 199.598L-141.792 139.163L-62.0641 181.357L-45.0573 144.471L13.6312 157.642L62.0475 208.869L105.449 169.275L261.911 216.837L213.751 324.732L243.027 356.247L208.207 436.023L166.333 460.928L166.572 560.874L126.743 575.547L55.6734 543.742L2.70834 552.537L-46.9213 498.354L-108.668 471.246L-147.795 507.898L-242.744 465.407L-248.39 351.456Z" stroke="url(#paint3_linear_2_32)" stroke-width="1.37062"/>
<path d="M-227.918 351.074L-163.486 319.219L-150.894 291.083L-175.248 235.01L-138.758 210.474L-128.283 155.691L-55.1127 194.208L-39.1488 160.21L15.1062 172.452L60.0229 219.29L99.2055 183.905L241.171 227.754L197.123 326.6L223.471 356.01L191.826 429.676L153.534 452.403L153.526 543.348L116.913 556.506L51.9001 527.412L1.90505 534.581L-43.432 485.536L-99.784 461.104L-135.895 494.182L-222.753 455.312L-227.918 351.074Z" stroke="url(#paint4_linear_2_32)" stroke-width="1.37062"/>
<path d="M-207.447 350.691L-149.494 321.311L-137.479 294.461L-158.6 243.713L-124.961 221.348L-114.774 172.218L-48.1608 207.057L-33.24 175.948L16.5816 187.261L57.9986 229.71L92.9627 198.534L220.431 238.669L180.495 328.467L203.915 355.772L175.445 423.329L140.735 443.877L140.481 525.821L107.084 537.464L48.1272 511.08L1.10208 516.625L-39.9422 472.717L-90.9001 450.961L-123.995 480.466L-202.761 445.216L-207.447 350.691Z" stroke="url(#paint5_linear_2_32)" stroke-width="1.37062"/>
<path d="M-186.975 350.308L-135.502 323.403L-124.063 297.841L-141.951 252.417L-111.164 232.224L-101.265 188.746L-41.2089 219.907L-27.3311 191.687L18.0571 202.07L55.9744 240.13L86.72 213.164L199.692 249.585L163.868 330.334L184.36 355.535L159.064 416.982L127.936 435.351L127.435 508.295L97.255 518.423L44.3543 494.749L0.299257 498.669L-36.4524 459.898L-82.0162 440.819L-112.094 466.749L-182.769 435.121L-186.975 350.308Z" stroke="url(#paint6_linear_2_32)" stroke-width="1.37062"/>
<path d="M-166.504 349.926L-121.511 325.495L-110.647 301.22L-125.303 261.122L-97.3677 243.099L-87.7561 205.273L-34.2572 232.756L-21.4224 207.426L19.5323 216.879L53.95 250.55L80.477 227.794L178.952 260.501L147.24 332.202L164.804 355.297L142.683 410.635L115.137 426.825L114.39 490.769L87.4257 499.382L40.5813 478.418L-0.503856 480.712L-32.9629 447.079L-73.1324 430.676L-100.194 453.033L-162.778 425.026L-166.504 349.926Z" stroke="url(#paint7_linear_2_32)" stroke-width="1.37062"/>
<path d="M-146.033 349.543L-107.519 327.587L-97.2318 304.599L-108.655 269.826L-83.5712 253.975L-74.2472 221.801L-27.3056 245.606L-15.5137 223.164L21.0074 231.688L51.9256 260.971L74.2341 242.423L158.212 271.416L130.612 334.069L145.248 355.06L126.301 404.288L102.337 418.3L101.344 473.242L77.5963 480.341L36.8082 462.087L-1.30697 462.756L-29.4733 434.261L-64.2487 420.534L-88.2938 439.316L-142.787 414.93L-146.033 349.543Z" stroke="url(#paint8_linear_2_32)" stroke-width="1.37062"/>
<path d="M-125.561 349.161L-93.5277 329.679L-83.8162 307.978L-92.0065 278.53L-69.7748 264.85L-60.7384 238.328L-20.3539 258.455L-9.60507 238.903L22.4826 246.498L49.9011 271.391L67.9911 257.053L137.473 282.332L113.984 335.936L125.693 354.822L109.92 397.941L89.5382 409.774L88.2987 455.716L67.7669 461.299L33.035 445.756L-2.11011 444.8L-25.9838 421.442L-55.365 410.391L-76.3936 425.6L-122.795 404.835L-125.561 349.161Z" stroke="url(#paint9_linear_2_32)" stroke-width="1.37062"/>
<path d="M-105.089 348.778L-79.5358 331.771L-70.4003 311.357L-75.3579 287.234L-55.9779 275.725L-47.2291 254.856L-13.4019 271.305L-3.69606 254.642L23.9581 261.307L47.877 281.811L61.7484 271.683L116.733 293.248L97.356 337.804L106.137 354.584L93.5393 391.594L76.7394 401.248L75.2534 438.19L57.9379 442.258L29.2622 429.425L-2.91289 426.844L-22.4939 408.624L-46.4809 400.249L-64.493 411.884L-102.804 394.739L-105.089 348.778Z" stroke="url(#paint10_linear_2_32)" stroke-width="1.37062"/>
<path d="M-84.6181 348.396L-65.5443 333.863L-56.9848 314.736L-58.7097 295.938L-42.1814 286.601L-33.7203 271.383L-6.45029 284.155L2.21261 270.38L25.4333 276.116L45.8525 292.231L55.5055 286.313L95.9933 304.164L80.728 339.671L86.5814 354.347L77.1581 385.247L63.9403 392.723L62.2079 420.664L48.1085 423.217L25.4891 413.094L-3.71601 408.888L-19.0044 395.805L-37.5972 390.107L-52.5928 398.167L-82.8124 384.644L-84.6181 348.396Z" stroke="url(#paint11_linear_2_32)" stroke-width="1.37062"/>
<path d="M-64.1465 348.013L-51.5525 335.955L-43.5691 318.115L-42.0613 304.642L-28.3847 297.476L-20.2112 287.91L0.501543 297.004L8.12145 286.118L26.9087 290.925L43.8283 302.651L49.2627 300.942L75.2536 315.079L64.1002 341.538L67.0258 354.109L60.777 378.9L51.1413 384.197L49.1625 403.137L38.2794 404.175L21.7162 396.763L-4.51895 390.931L-15.5146 382.986L-28.7133 379.964L-40.6924 384.451L-62.8208 374.548L-64.1465 348.013Z" stroke="url(#paint12_linear_2_32)" stroke-width="1.37062"/>
<path d="M-43.675 347.63L-37.5608 338.047L-30.1534 321.494L-25.4129 313.346L-14.588 308.351L-6.70214 304.438L7.45337 309.854L14.0303 301.857L28.3841 305.734L41.804 313.071L43.0199 315.572L54.514 325.995L47.4723 343.405L47.4702 353.871L44.396 372.553L38.3423 375.671L36.1171 385.611L28.4502 385.134L17.9433 380.432L-5.32189 372.975L-12.0249 370.167L-19.8294 369.821L-28.792 370.734L-42.8293 364.452L-43.675 347.63Z" stroke="url(#paint13_linear_2_32)" stroke-width="1.37062"/>
</g>
<defs>
<linearGradient id="paint0_linear_2_32" x1="-234.889" y1="230.562" x2="257.548" y2="450.936" gradientUnits="userSpaceOnUse">
<stop stop-color="white"/>
<stop offset="1" stop-color="white" stop-opacity="0"/>
</linearGradient>
<linearGradient id="paint1_linear_2_32" x1="-14.815" y1="328.504" x2="37.8811" y2="352.086" gradientUnits="userSpaceOnUse">
<stop stop-color="white"/>
<stop offset="1" stop-color="white" stop-opacity="0"/>
</linearGradient>
<linearGradient id="paint2_linear_2_32" x1="-218.191" y1="238.613" x2="239.929" y2="443.628" gradientUnits="userSpaceOnUse">
<stop stop-color="white"/>
<stop offset="1" stop-color="white" stop-opacity="0"/>
</linearGradient>
<linearGradient id="paint3_linear_2_32" x1="-201.493" y1="246.662" x2="222.311" y2="436.321" gradientUnits="userSpaceOnUse">
<stop stop-color="white"/>
<stop offset="1" stop-color="white" stop-opacity="0"/>
</linearGradient>
<linearGradient id="paint4_linear_2_32" x1="-184.795" y1="254.713" x2="204.692" y2="429.015" gradientUnits="userSpaceOnUse">
<stop stop-color="white"/>
<stop offset="1" stop-color="white" stop-opacity="0"/>
</linearGradient>
<linearGradient id="paint5_linear_2_32" x1="-168.098" y1="262.762" x2="187.073" y2="421.707" gradientUnits="userSpaceOnUse">
<stop stop-color="white"/>
<stop offset="1" stop-color="white" stop-opacity="0"/>
</linearGradient>
<linearGradient id="paint6_linear_2_32" x1="-151.4" y1="270.813" x2="169.455" y2="414.4" gradientUnits="userSpaceOnUse">
<stop stop-color="white"/>
<stop offset="1" stop-color="white" stop-opacity="0"/>
</linearGradient>
<linearGradient id="paint7_linear_2_32" x1="-134.702" y1="278.863" x2="151.836" y2="407.093" gradientUnits="userSpaceOnUse">
<stop stop-color="white"/>
<stop offset="1" stop-color="white" stop-opacity="0"/>
</linearGradient>
<linearGradient id="paint8_linear_2_32" x1="-118.004" y1="286.913" x2="134.217" y2="399.786" gradientUnits="userSpaceOnUse">
<stop stop-color="white"/>
<stop offset="1" stop-color="white" stop-opacity="0"/>
</linearGradient>
<linearGradient id="paint9_linear_2_32" x1="-101.307" y1="294.963" x2="116.598" y2="392.479" gradientUnits="userSpaceOnUse">
<stop stop-color="white"/>
<stop offset="1" stop-color="white" stop-opacity="0"/>
</linearGradient>
<linearGradient id="paint10_linear_2_32" x1="-84.6088" y1="303.013" x2="98.9798" y2="385.172" gradientUnits="userSpaceOnUse">
<stop stop-color="white"/>
<stop offset="1" stop-color="white" stop-opacity="0"/>
</linearGradient>
<linearGradient id="paint11_linear_2_32" x1="-67.9111" y1="311.063" x2="81.361" y2="377.865" gradientUnits="userSpaceOnUse">
<stop stop-color="white"/>
<stop offset="1" stop-color="white" stop-opacity="0"/>
</linearGradient>
<linearGradient id="paint12_linear_2_32" x1="-50.7437" y1="318.063" x2="64.8519" y2="369.794" gradientUnits="userSpaceOnUse">
<stop stop-color="white"/>
<stop offset="1" stop-color="white" stop-opacity="0"/>
</linearGradient>
<linearGradient id="paint13_linear_2_32" x1="-32.9184" y1="323.594" x2="49.7499" y2="360.59" gradientUnits="userSpaceOnUse">
<stop stop-color="white"/>
<stop offset="1" stop-color="white" stop-opacity="0"/>
</linearGradient>
</defs>
</svg>
