<svg width="27" height="27" viewBox="0 0 27 27" fill="none" xmlns="http://www.w3.org/2000/svg">
<path d="M10.5588 11.0984C10.5588 10.2447 9.42348 10.0185 9.12226 10.8172C8.39364 12.7492 7.86275 14.4776 7.86275 15.412C7.86275 18.39 10.2769 20.8042 13.2549 20.8042C16.2329 20.8042 18.6471 18.39 18.6471 15.412C18.6471 14.4081 18.0343 12.4878 17.2219 10.383C16.1694 7.65653 15.6432 6.29329 14.9937 6.21986C14.7858 6.19637 14.5591 6.23861 14.3737 6.33538C13.7941 6.63778 13.7941 8.12464 13.7941 11.0984C13.7941 11.9918 13.0699 12.716 12.1765 12.716C11.2831 12.716 10.5588 11.9918 10.5588 11.0984Z" fill="white"/>
</svg>
