<svg width="23" height="23" viewBox="0 0 23 23" fill="none" xmlns="http://www.w3.org/2000/svg">
<path d="M10.3957 17.1818L10.7174 15.5731C10.7771 15.2747 10.8069 15.1255 10.726 15.0268C10.6451 14.9281 10.493 14.9281 10.1887 14.9281H9.10268C8.68045 14.9281 8.46933 14.9281 8.39189 14.7914C8.31445 14.6546 8.42307 14.4735 8.64031 14.1115L10.3564 11.2513C10.5737 10.8892 10.6823 10.7082 10.6048 10.5714C10.5274 10.4347 10.3163 10.4347 9.89405 10.4347H8.02972C7.67624 10.4347 7.4995 10.4347 7.41908 10.3186C7.33866 10.2026 7.40072 10.0371 7.52484 9.70611L9.8165 3.595C9.87997 3.42576 9.9117 3.34114 9.98098 3.29313C10.0503 3.24512 10.1406 3.24512 10.3214 3.24512H14.3875C14.8097 3.24512 15.0209 3.24512 15.0983 3.38189C15.1757 3.51866 15.0671 3.69969 14.8499 4.06176L13.1338 6.92194C12.9165 7.284 12.8079 7.46504 12.8854 7.60181C12.9628 7.73858 13.1739 7.73858 13.5961 7.73858H14.2614C14.732 7.73858 14.9673 7.73858 15.0418 7.88762C15.1163 8.03665 14.9751 8.22488 14.6928 8.60133L13.2908 10.4706C13.0085 10.8471 12.8673 11.0353 12.9419 11.1843C13.0164 11.3334 13.2517 11.3334 13.7222 11.3334H15.1361C15.6157 11.3334 15.8556 11.3334 15.9295 11.4845C16.0034 11.6357 15.8562 11.825 15.5617 12.2036L15.5617 12.2036L11.35 17.6186C10.7953 18.3319 10.5179 18.6885 10.3239 18.5997C10.1298 18.5109 10.2185 18.0679 10.3957 17.1818Z" fill="white"/>
</svg>
